<svg xmlns="http://www.w3.org/2000/svg" viewBox="0 0 100 100"><path d="M20,50 Q20,30 40,20 Q60,10 80,40 Q90,50 80,80 Q60,95 40,90 Q20,80 20,50 Z" fill="#795548" stroke="#3E2723" stroke-width="3" /><path d="M20,50 L10,30 L30,40" fill="#795548" stroke="#3E2723" stroke-width="3" /><path d="M80,40 L90,20 L70,30" fill="#795548" stroke="#3E2723" stroke-width="3" /><circle cx="40" cy="50" r="4" fill="white" /><circle cx="40" cy="50" r="2" fill="black" /><circle cx="60" cy="50" r="4" fill="white" /><circle cx="60" cy="50" r="2" fill="black" /><path d="M50,70 Q60,60 70,70 Q50,90 30,70" fill="#C62828" stroke="#B71C1C" stroke-width="2" /><rect x="45" y="60" width="10" height="5" rx="2" fill="black" /></svg>