<svg xmlns="http://www.w3.org/2000/svg" viewBox="0 0 100 100"><path d="M80,80 Q95,70 90,50" fill="none" stroke="#FFFFFF" stroke-width="8" stroke-linecap="round" /><ellipse cx="50" cy="65" rx="35" ry="30" fill="#FFFFFF" /><circle cx="30" cy="55" r="5" fill="#3E2723" /><circle cx="70" cy="55" r="6" fill="#FFB38A" /><path d="M40,20 Q50,10 60,20" fill="#3E2723" /><path d="M25,45 L15,20 L40,35 Z" fill="#FFFFFF" stroke="#FFB38A" stroke-width="2" stroke-linejoin="round" /><path d="M75,45 L85,20 L60,35 Z" fill="#FFFFFF" stroke="#FFB38A" stroke-width="2" stroke-linejoin="round" /><circle cx="50" cy="45" r="28" fill="#FFFFFF" /><g><circle cx="38" cy="40" r="3" fill="#4A3B32" /><circle cx="39" cy="39" r="1" fill="white" /><circle cx="62" cy="40" r="3" fill="#4A3B32" /><circle cx="63" cy="39" r="1" fill="white" /><path d="M45,50 Q50,55 55,50" fill="none" stroke="#4A3B32" stroke-width="2" stroke-linecap="round" /></g><circle cx="32" cy="52" r="3" fill="#FF8BA7" opacity="0.6" /><circle cx="68" cy="52" r="3" fill="#FF8BA7" opacity="0.6" /><ellipse cx="35" cy="85" rx="6" ry="5" fill="white" /><ellipse cx="65" cy="85" rx="6" ry="5" fill="white" /></svg>